<svg width="48" height="48" viewBox="0 0 48 48" fill="none" xmlns="http://www.w3.org/2000/svg">
<rect width="48" height="48" rx="24" fill="white"/>
<path d="M23 14.3636C23.7532 13.6105 24.9742 13.6105 25.7273 14.3636C26.4804 15.1168 26.4804 16.3378 25.7273 17.0909L12.0909 30.7273C11.3378 31.4804 10.1168 31.4804 9.36365 30.7273C8.61053 29.9742 8.61053 28.7531 9.36365 28L23 14.3636Z" fill="#111111"/>
<path d="M33.9091 14.3636C34.6622 13.6105 35.8833 13.6105 36.6364 14.3636C37.3895 15.1168 37.3895 16.3378 36.6364 17.0909L28.4545 25.2727C27.7014 26.0259 26.4804 26.0259 25.7273 25.2727C24.9741 24.5196 24.9741 23.2986 25.7273 22.5455L33.9091 14.3636Z" fill="#111111"/>
<path d="M33.9091 25.2728C34.6622 24.5197 35.8833 24.5197 36.6364 25.2728C37.3895 26.0259 37.3895 27.2469 36.6364 28.0001L33.9091 30.7273C33.156 31.4805 31.9349 31.4805 31.1818 30.7273C30.4287 29.9742 30.4287 28.7532 31.1818 28.0001L33.9091 25.2728Z" fill="#111111"/>
</svg>
